<svg width="229" height="119" viewBox="0 0 229 119" fill="none" xmlns="http://www.w3.org/2000/svg">
<path d="M3.69205 59.448C3.35088 59.3708 3.0394 59.1964 2.79529 58.9459C2.55118 58.6953 2.38491 58.3794 2.31658 58.0364C2.24317 57.7325 2.25874 57.414 2.36143 57.1187C2.46412 56.8235 2.6496 56.564 2.89573 56.3713C4.56034 54.785 6.47403 53.4828 8.56049 52.5164C10.5551 51.4826 12.7577 50.9134 15.0035 50.8513L15.7817 50.0731C17.6881 45.8984 19.4496 41.7962 21.0664 37.7663C22.6692 33.7412 24.6572 29.8804 27.0027 26.2377C24.9153 25.7188 22.7858 25.1156 20.614 24.4278C18.4422 23.7401 16.2945 23.0222 14.171 22.2741C12.0742 21.5185 10.0253 20.6361 8.03564 19.6318C6.09241 18.6384 4.27049 17.4238 2.60615 16.0121C2.29142 15.8694 2.00366 15.6735 1.75553 15.433C1.30379 15.0665 0.891345 14.654 0.52485 14.2023C0.235295 13.9006 0.0511679 13.5133 0 13.0983C0 12.7967 0.476588 12.6881 1.42976 12.7725C2.6536 12.9438 3.86335 13.2039 5.04942 13.5508C6.25598 13.9007 7.40823 14.2023 8.5062 14.4557C18.8455 16.7926 29.5084 17.3435 40.0334 16.0845C45.2312 15.445 50.342 14.231 55.2722 12.4649C60.0005 10.8207 64.409 8.37151 68.303 5.22554C69.4341 4.35583 70.2942 3.1819 70.7824 1.84115C71.2168 0.453617 71.9106 -0.149659 72.8637 0.031324C73.9504 0.280972 74.9052 0.926128 75.5423 1.84115C76.4414 3.10718 77.0586 4.55132 77.3521 6.07616C77.7424 7.80914 77.6294 9.61757 77.0263 11.2885C76.082 13.9223 74.4884 16.2752 72.3932 18.1296C70.3516 19.9137 68.0433 21.3671 65.552 22.437C63.0135 23.5312 60.3693 24.362 57.6612 24.9165C55.0119 25.466 52.3357 25.8768 49.6436 26.1472L44.1055 26.7263L40.9745 27.0521C40.4582 27.1206 39.9387 27.1629 39.4181 27.1788H38.8027C38.6169 27.1669 38.4317 27.2104 38.2706 27.3039C38.1096 27.3973 37.9798 27.5364 37.8978 27.7036L35.8165 32.3911C35.1167 33.9596 34.423 35.4376 33.7352 36.8252L30.93 43.4672C30.013 45.639 29.0357 47.8108 27.9981 49.9826H29.3011C35.3339 49.9826 40.2868 49.874 44.1598 49.6568C48.0329 49.4397 51.2664 49.2225 53.8605 49.0053C56.4184 48.7881 58.4575 48.6554 59.9777 48.6072C61.3134 48.5462 62.6514 48.6557 63.9594 48.9329C64.3747 49.1029 64.7121 49.421 64.906 49.8257C65.1 50.2303 65.1367 50.6926 65.0091 51.1228C64.8885 52.4488 64.5136 53.7392 63.9051 54.9235C63.2627 56.2463 62.4271 57.4662 61.4256 58.5431C61.0921 58.9882 60.6713 59.3606 60.189 59.6376C59.7067 59.9145 59.1729 60.0902 58.6204 60.1539C52.8048 60.4193 47.0918 60.552 41.4813 60.552H24.8671C24.733 60.5434 24.5988 60.566 24.475 60.618C24.3512 60.67 24.2411 60.75 24.1534 60.8517C24.0658 60.9535 24.0028 61.0741 23.9696 61.2042C23.9365 61.3344 23.9339 61.4704 23.9621 61.6017C23.009 63.9424 22.098 66.5064 21.2293 69.2935C20.7949 70.681 20.3364 72.1591 19.8538 73.7276C19.3712 75.2961 18.8283 77.4257 18.225 80.1163C17.6217 82.8069 16.9702 86.3059 16.2704 90.6133C15.5706 94.9207 14.7863 100.501 13.9176 107.354C13.9476 107.763 13.8597 108.171 13.6642 108.531C13.5697 108.726 13.4354 108.899 13.2701 109.039C13.1048 109.179 12.9121 109.283 12.7042 109.344C12.4964 109.406 12.278 109.423 12.0631 109.395C11.8482 109.367 11.6415 109.295 11.4562 109.182C10.2951 108.64 9.35117 107.722 8.77767 106.576C7.97775 105.167 7.36911 103.657 6.96784 102.088C6.51515 100.303 6.18857 98.4886 5.99053 96.6581C5.77702 94.7774 5.66826 92.8862 5.66477 90.9934C5.39932 85.8119 5.94896 80.6208 7.29361 75.6098C8.64495 70.5785 10.0144 65.7523 11.4019 61.1312L7.89086 60.7511C6.42198 60.5836 4.99767 60.1416 3.69205 59.448Z" fill="white"/>
<path d="M54.2587 90.0342C54.1042 86.5687 54.4579 83.0993 55.3084 79.7363C56.1329 76.2841 57.4494 72.9683 59.2176 69.8908C60.8633 66.9939 63.1094 64.4824 65.8054 62.5248C68.5306 60.591 71.7845 59.5422 75.126 59.5205C76.8272 59.876 78.3362 60.8497 79.361 62.2533C79.8645 62.988 80.2014 63.8237 80.3483 64.7021C80.4953 65.5805 80.4486 66.4804 80.2116 67.3389C79.932 69.0277 79.4268 70.6713 78.7095 72.2255C77.8617 73.825 76.7338 75.2594 75.3794 76.4605C74.5951 77.1603 73.5092 78.0712 72.1217 79.1933C70.7342 80.3154 69.3889 81.4858 68.0858 82.7044C66.8547 83.8431 65.7225 85.0843 64.7014 86.4145C63.9044 87.3013 63.4045 88.415 63.2716 89.5998C63.0062 91.8561 63.3561 93.31 64.3213 93.9615C65.4292 94.6464 66.7418 94.9217 68.0315 94.7398C69.634 94.5925 71.2003 94.1765 72.6647 93.5091C74.2332 92.8093 75.494 92.206 76.4472 91.6992C77.5814 90.915 78.8422 89.9377 80.2297 88.7673C81.6173 87.597 83.0048 86.3602 84.3923 85.0572L88.4283 81.2746C89.7313 80.0681 90.8172 79.0666 91.686 78.2703C92.5547 77.474 93.158 76.8224 93.4958 76.3157C94.0853 75.6934 94.7694 75.1682 95.5228 74.7592C96.05 74.5989 96.6059 74.5556 97.1516 74.6325C97.5377 74.717 97.4714 75.3685 96.9526 76.5872C96.2585 78.0609 95.4091 79.4563 94.4188 80.7498C93.4174 82.0529 92.3556 83.3559 91.2335 84.659C89.665 86.3964 87.9939 88.2063 86.2203 90.0885C84.4693 91.9725 82.595 93.7379 80.6098 95.3732C78.7037 96.9467 76.6558 98.3402 74.4926 99.5358C72.4493 100.681 70.2186 101.453 67.9048 101.816C64.4306 102.215 60.9301 101.334 58.0593 99.3367C55.5256 97.4786 54.2587 94.3778 54.2587 90.0342ZM75.1079 65.5291C73.0327 66.2304 71.1406 67.3867 69.5698 68.9135C68.0546 70.6481 67.041 72.763 66.6379 75.0307C68.4392 73.7293 70.1559 72.3148 71.7778 70.7957C73.3065 69.3499 74.451 67.5461 75.1079 65.5472V65.5291Z" fill="white"/>
<path d="M95.8124 111.535C95.8643 111.88 95.9992 112.207 96.2055 112.488C96.4118 112.769 96.6832 112.996 96.9965 113.149C97.3098 113.302 97.6557 113.377 98.0042 113.367C98.3528 113.357 98.6937 113.262 98.9977 113.091C101.096 112.151 102.999 110.825 104.608 109.182C107 106.916 109.243 104.498 111.323 101.943C113.663 99.0713 115.901 96.2479 118.037 93.4729C120.173 90.6978 122.019 88.1761 123.575 85.9078C125.144 83.6515 126.187 82.1735 126.706 81.4737C127.143 80.7758 127.646 80.1213 128.208 79.5191C128.878 78.8165 129.598 78.1633 130.362 77.5645C130.706 77.3111 131.122 77.0215 131.593 76.7138C131.946 76.4453 132.38 76.3049 132.823 76.3157C133.167 76.3157 133.33 76.6414 133.276 77.1663C133.092 78.0817 132.762 78.9616 132.299 79.7725C131.78 80.8101 130.953 82.3967 129.819 84.5323C128.685 86.6679 127.297 89.081 125.656 91.7716C124.004 94.426 122.194 97.1649 120.227 99.9883C118.268 102.767 116.115 105.404 113.784 107.879C111.612 110.194 109.258 112.33 106.744 114.268C104.621 115.961 102.148 117.16 99.5044 117.779C97.5426 118.27 95.5349 118.555 93.5139 118.629C92.614 118.65 91.7199 118.48 90.8902 118.13C90.0606 117.781 89.3141 117.26 88.6998 116.602C87.302 115.066 86.5164 113.069 86.4918 110.992C86.3248 108.406 86.434 105.809 86.8175 103.246C87.1974 100.567 87.7414 97.9134 88.4464 95.3008C89.1462 92.7429 89.7133 90.7642 90.1476 89.3646C91.5352 84.8521 92.8624 80.3999 94.1293 76.008C95.3961 71.6162 96.6328 67.2062 97.8394 62.7782C99.1425 58.8689 100.349 54.8511 101.459 50.7247C102.569 46.5983 103.643 42.87 104.681 39.5399C102.943 39.4555 101.133 39.3891 99.2511 39.3409L93.8216 39.2142C91.9997 39.2142 90.1899 39.1056 88.3921 38.8884C86.6978 38.7337 85.0203 38.4309 83.3789 37.9835C82.2044 37.7559 81.1331 37.16 80.3203 36.2823C79.7253 35.6448 79.4009 34.8013 79.4153 33.9295C79.4548 33.5121 79.5937 33.1102 79.8205 32.7576C80.0472 32.4049 80.3551 32.1117 80.7184 31.9025C81.8127 31.2632 83.0736 30.9669 84.3381 31.0518C85.2913 31.0518 86.8537 31.1363 89.0255 31.3052C91.1973 31.4741 93.4777 31.6069 95.8667 31.7034C98.2798 31.7878 100.494 31.7878 102.509 31.7034C103.851 31.7562 105.194 31.6036 106.49 31.2509C106.592 31.2393 106.687 31.1936 106.759 31.1213C106.831 31.049 106.877 30.9544 106.889 30.8528C107.407 29.2842 107.974 27.6313 108.59 25.8938C109.205 24.1564 109.808 22.4612 110.4 20.8082C111.003 19.1552 111.606 17.5928 112.209 16.1208C112.813 14.6488 113.313 13.3879 113.712 12.3382C113.894 11.9441 114.211 11.6285 114.607 11.4491C115.002 11.2697 115.449 11.2384 115.865 11.3609C117.05 11.5237 118.197 11.8976 119.25 12.4649C120.389 13.0496 121.423 13.8203 122.308 14.7453C122.677 15.0564 122.973 15.4444 123.177 15.8821C123.38 16.3197 123.485 16.7965 123.485 17.279C123.219 19.5715 122.609 21.8107 121.675 23.9211C120.641 26.3203 119.811 28.8025 119.195 31.3414L133.33 31.1423H148.478C149.422 31.1527 150.363 31.2619 151.284 31.4681C151.935 31.6491 152.08 31.8844 151.736 32.192C150.678 32.773 149.536 33.1881 148.352 33.4227C143.148 35.0966 137.84 36.4267 132.461 37.4044C127.334 38.3213 122.296 38.997 117.349 39.4314C116.915 39.4314 116.716 39.6123 116.77 39.6847C116.742 39.971 116.629 40.2422 116.444 40.463C116.436 40.5606 116.391 40.6514 116.318 40.7163C116.244 40.7813 116.199 40.8721 116.191 40.9697C114.804 44.7945 113.283 49.0958 111.63 53.8738C109.977 58.6517 108.324 63.5624 106.671 68.6058C105.018 73.6492 103.456 78.6021 101.984 83.4645C100.512 88.3269 99.2511 92.7369 98.2014 96.6944C97.1637 100.652 96.4036 103.952 95.921 106.594C95.4384 109.236 95.4022 110.883 95.8124 111.535Z" fill="white"/>
<path d="M166.577 75.8269C167.53 75.3926 168.133 75.3926 168.387 75.8269C168.497 76.1232 168.536 76.4412 168.502 76.7554C168.467 77.0697 168.36 77.3715 168.187 77.6367C167.668 78.6738 167.01 79.6357 166.233 80.4963C165.429 81.3881 164.557 82.217 163.627 82.9757C161.624 84.7976 159.953 86.2938 158.613 87.4641C157.274 88.6345 156.128 89.5515 155.175 90.2151C154.258 90.9149 153.498 91.4819 152.894 91.9163L151.193 93.0927C149.19 94.2992 147.212 95.4696 145.257 96.6038C143.513 97.6419 141.655 98.474 139.719 99.0832C137.144 99.8455 134.403 99.8455 131.828 99.0832C130.598 98.7464 129.45 98.1617 128.454 97.365C127.458 96.5682 126.635 95.5763 126.037 94.4501C124.53 91.5886 123.901 88.3467 124.227 85.1294C124.491 81.6039 125.399 78.1567 126.905 74.9582C128.351 71.8012 130.412 68.9647 132.968 66.6149C135.224 64.4312 138.179 63.1168 141.312 62.9047C141.833 62.8327 142.363 62.8713 142.868 63.0179C143.373 63.1644 143.842 63.4157 144.243 63.7554C145.114 64.3732 145.751 65.2655 146.053 66.2891C146.316 67.133 146.359 68.0299 146.18 68.8953C145.999 69.8484 145.758 70.9102 145.456 72.0806C145.154 73.2509 144.829 74.5299 144.479 75.9174C144.129 77.3049 143.827 78.7407 143.574 80.2248C143.545 80.4203 143.462 80.6039 143.334 80.7544C143.206 80.9049 143.038 81.0161 142.85 81.0754C142.666 81.0767 142.486 81.022 142.334 80.9185C142.182 80.8151 142.065 80.6678 141.999 80.4963C141.107 79.2265 140.49 77.7838 140.189 76.2613C139.972 74.9099 139.731 73.631 139.465 72.4244C138.618 72.6381 137.89 73.1781 137.438 73.9266C136.513 75.079 135.707 76.322 135.031 77.6367C134.231 79.1582 133.577 80.7519 133.077 82.3966C132.598 83.8463 132.336 85.3587 132.299 86.885C132.213 88.2336 132.481 89.5813 133.077 90.7942C133.276 91.1759 133.552 91.5117 133.889 91.7798C134.226 92.0479 134.615 92.2424 135.031 92.3507C135.94 92.5211 136.875 92.4777 137.764 92.224C138.848 91.948 139.898 91.5535 140.895 91.0476C145.504 88.8758 149.932 86.5532 154.179 84.0797C158.51 81.639 162.654 78.8805 166.577 75.8269Z" fill="white"/>
<path d="M194.068 74.6687C190.762 77.1903 187.571 79.6457 184.494 82.0347C181.404 84.4325 178.588 87.1638 176.097 90.1789C174.625 91.9911 173.254 93.8822 171.988 95.8437C170.773 97.7155 169.749 99.7042 168.93 101.78C168.667 102.175 168.261 102.451 167.797 102.549C167.333 102.647 166.85 102.559 166.45 102.305C164.415 100.816 162.906 98.7179 162.143 96.3142C161.352 93.8102 160.98 91.1932 161.039 88.5681C161.079 85.8546 161.382 83.1514 161.944 80.4963C162.511 77.8419 163.114 75.5193 163.753 73.5285C165.141 68.4971 166.728 63.309 168.513 57.9639C170.299 52.6189 172.211 47.3402 174.25 42.1279C176.29 36.9156 178.419 31.8783 180.639 27.0158C182.859 22.1534 185.007 17.6349 187.082 13.4602C188.106 11.4387 189.318 9.51792 190.702 7.72306C191.868 6.20988 193.225 4.85339 194.738 3.68714C195.42 3.12038 196.261 2.77894 197.145 2.70983C197.931 2.65946 198.717 2.81543 199.425 3.16229C200.142 3.50757 200.764 4.02334 201.235 4.66445C201.688 5.25559 201.981 5.95381 202.086 6.69146C202.557 11.0282 202.157 15.4154 200.909 19.5955C199.518 24.6271 197.702 29.5313 195.48 34.2552C193.296 39.0218 190.793 43.6354 187.987 48.0642C185.746 51.7177 183.151 55.1426 180.241 58.2897C179.986 58.4846 179.801 58.758 179.716 59.0679C178.329 62.6876 177.122 66.2469 176.097 69.7459C175.071 73.2449 173.949 76.7077 172.73 80.1343C172.549 81.0875 172.356 82.089 172.151 83.1387C171.934 84.1682 171.825 85.2175 171.825 86.2697C172.833 84.9064 173.966 83.64 175.21 82.4871C177.9 79.881 180.724 77.4075 183.68 75.0668C186.644 72.7189 189.832 70.6699 193.199 68.9496C194.517 68.2831 195.892 67.7379 197.308 67.3208C198.646 66.9067 200.078 66.9067 201.416 67.3208C202.597 67.603 203.735 68.0412 204.8 68.6238C205.288 68.9144 205.703 69.311 206.017 69.784C206.33 70.2571 206.533 70.7946 206.61 71.3567C206.634 72.4597 206.481 73.5595 206.158 74.6144C205.289 77.8238 204.179 81.3409 202.828 85.1657L198.991 96.0246C197.784 99.4513 196.741 102.407 195.86 104.893C195.196 106.298 194.839 107.828 194.81 109.381C195.245 110.25 196.095 110.286 197.344 109.508C198.991 108.408 200.519 107.14 201.905 105.725C203.69 103.988 205.645 101.901 207.769 99.4633C209.892 97.0261 212.022 94.5708 214.157 92.0973C216.281 89.6239 218.344 87.2771 220.347 85.0571C222.35 82.837 224.045 81.0755 225.432 79.7724C225.759 79.3214 226.189 78.956 226.687 78.707C227.185 78.4581 227.735 78.3331 228.292 78.3426C229.076 78.5236 229.209 79.4345 228.69 81.0755C227.99 82.282 226.862 84.0436 225.306 86.3602C223.749 88.6767 221.909 91.2467 219.786 94.07C217.65 96.8451 215.37 99.6684 212.945 102.54C210.519 105.412 208.106 108.018 205.705 110.358C203.586 112.472 201.298 114.409 198.864 116.15C197.262 117.45 195.309 118.244 193.254 118.43C191.752 118.444 190.265 118.135 188.892 117.525C187.571 116.939 186.392 116.075 185.435 114.992C184.469 113.889 183.737 112.602 183.282 111.209C182.793 109.673 182.639 108.05 182.829 106.449C182.922 105.725 183.055 105.006 183.227 104.296C183.396 103.56 183.613 102.667 183.879 101.617C184.832 99.0953 185.725 96.5736 186.557 94.0519C187.39 91.5302 188.283 89.0085 189.236 86.4868C190.741 82.5716 192.556 78.783 194.665 75.1573V74.9039C194.72 74.7591 194.448 74.6687 194.068 74.6687ZM180.784 53.6927C182.052 52.5332 183.171 51.2199 184.114 49.7835C185.738 47.4627 187.218 45.0451 188.548 42.5442C190.068 39.7691 191.589 36.795 193.109 33.6217C194.629 30.4485 195.932 27.3838 197.018 24.4278C197.999 21.8416 198.785 19.1859 199.371 16.4826C199.886 14.7714 199.816 12.9373 199.172 11.2703C198.219 13.3577 196.891 16.3318 195.19 20.1928C193.489 24.0538 191.727 28.1138 189.906 32.3729C188.084 36.6321 186.322 40.7163 184.621 44.6255C182.92 48.5347 181.641 51.5511 180.784 53.6746V53.6927Z" fill="white"/>
</svg>
