<svg width="436" height="436" viewBox="0 0 436 436" fill="none" xmlns="http://www.w3.org/2000/svg">
<path d="M78.9388 227.998L271.468 329.062L303.651 314.383L121.849 132.016L78.9388 227.998Z" fill="white"/>
<path d="M51.2731 288.976L194.118 363.503L250.013 338.096L71.0342 244.937L51.2731 288.976Z" fill="white"/>
<path d="M1.02352 401.332C-4.62251 421.657 14.0094 439.725 34.3351 434.643L95.8768 407.542L17.397 366.326L1.02352 401.332Z" fill="white"/>
<path d="M24.1722 349.388L116.767 397.944L172.663 373.102L43.9333 305.349L24.1722 349.388Z" fill="white"/>
<path d="M211.056 177.184C213.879 180.007 218.96 180.007 221.783 177.184L239.851 158.552C242.674 155.729 242.674 151.212 239.851 148.389C237.028 145.566 232.511 145.566 229.688 148.389L211.056 167.021C208.233 169.844 208.233 174.361 211.056 177.184Z" fill="white"/>
<path d="M247.755 129.193C244.932 132.016 244.932 136.533 247.755 139.356C250.578 142.179 255.095 142.179 257.918 139.356L269.21 128.064C310.99 85.1538 277.114 42.8086 277.114 42.244C274.291 38.8564 269.774 38.8564 266.951 41.1148C263.564 43.9378 263.564 48.4546 265.822 51.2777C266.951 52.4069 291.229 84.0246 259.047 117.336L247.755 129.193Z" fill="white"/>
<path d="M279.937 194.687L258.482 215.013C255.659 217.836 255.659 222.353 258.482 225.176C261.305 227.999 265.822 227.999 268.645 225.176L290.1 204.85C292.923 202.027 292.923 197.51 290.1 194.687C287.842 191.864 283.325 191.864 279.937 194.687Z" fill="white"/>
<path d="M298.005 187.912C300.828 190.735 305.344 190.735 308.167 187.912L318.895 177.749C320.589 176.055 322.283 174.926 323.976 173.232C327.364 170.409 327.364 165.892 325.106 163.069C322.282 159.682 317.766 159.682 314.943 161.94C312.684 163.634 310.99 165.328 308.732 167.021L298.005 177.184C295.182 180.572 294.617 185.089 298.005 187.912C297.44 187.912 297.44 187.912 298.005 187.912Z" fill="white"/>
<path d="M395.116 169.845C397.939 166.457 397.375 161.94 393.987 159.682C392.858 159.117 372.532 142.744 345.431 147.261C341.479 147.825 338.656 151.777 339.221 155.73C339.221 157.423 340.35 158.553 341.479 159.682C343.173 161.376 345.431 161.94 347.69 161.94C368.58 158.553 384.389 170.974 384.389 171.538C387.777 173.797 392.858 173.232 395.116 169.845Z" fill="white"/>
<path d="M172.098 137.662C176.05 139.356 180.003 137.662 181.696 133.71L193.553 105.48C195.247 101.528 193.553 97.5756 189.601 95.8818C185.649 94.188 181.696 95.8818 180.003 99.834L168.146 128.064C167.017 130.887 167.581 134.275 169.84 135.969C170.404 136.533 170.969 137.098 172.098 137.662Z" fill="white"/>
<path d="M171.534 14.0142C172.663 14.5788 200.893 31.5169 192.988 65.9576C192.988 66.5223 192.424 67.6515 192.424 68.2161C191.859 71.0391 192.424 73.2975 194.118 75.5559C195.247 76.6851 196.376 77.2497 197.505 77.2497C201.458 78.3789 205.41 76.1205 206.539 72.1683C206.539 71.0391 207.104 70.4745 207.104 69.3453C215.573 32.6461 191.859 8.93276 178.309 1.02832C174.921 -1.23009 170.404 0.46372 168.146 3.85134C166.452 7.23895 167.581 11.7558 171.534 14.0142Z" fill="white"/>
<path d="M361.805 238.162C360.111 234.21 356.159 232.516 352.207 234.21L302.521 255.1C298.569 256.794 296.875 260.746 298.569 264.698C299.134 265.827 299.698 266.392 300.263 266.957C302.521 269.215 305.344 269.78 308.167 268.65L357.853 248.325C361.805 246.631 363.499 242.114 361.805 238.162Z" fill="white"/>
<path d="M434.639 258.487C434.074 257.358 422.217 236.468 396.81 229.692C392.858 228.563 388.906 230.822 387.777 234.774C387.212 237.597 387.777 239.855 389.47 241.549C390.6 242.678 391.729 243.243 392.858 243.243C412.055 248.324 421.653 264.698 421.653 264.698C423.911 268.085 427.863 269.214 431.816 267.521C435.768 266.956 436.897 262.439 434.639 258.487Z" fill="white"/>
<path d="M250.013 27.5649C254.379 27.5649 257.918 24.0259 257.918 19.6604C257.918 15.2949 254.379 11.756 250.013 11.756C245.648 11.756 242.109 15.2949 242.109 19.6604C242.109 24.0259 245.648 27.5649 250.013 27.5649Z" fill="white"/>
<path d="M150.643 90.8001C155.009 90.8001 158.548 87.2612 158.548 82.8956C158.548 78.5301 155.009 74.9912 150.643 74.9912C146.278 74.9912 142.739 78.5301 142.739 82.8956C142.739 87.2612 146.278 90.8001 150.643 90.8001Z" fill="white"/>
<path d="M419.959 198.075C424.324 198.075 427.863 194.536 427.863 190.17C427.863 185.805 424.324 182.266 419.959 182.266C415.593 182.266 412.054 185.805 412.054 190.17C412.054 194.536 415.593 198.075 419.959 198.075Z" fill="white"/>
<path d="M354.465 292.364C358.83 292.364 362.369 288.825 362.369 284.459C362.369 280.094 358.83 276.555 354.465 276.555C350.099 276.555 346.561 280.094 346.561 284.459C346.561 288.825 350.099 292.364 354.465 292.364Z" fill="white"/>
<path d="M326.235 82.8956C330.6 82.8956 334.139 79.3566 334.139 74.9911C334.139 70.6256 330.6 67.0867 326.235 67.0867C321.869 67.0867 318.33 70.6256 318.33 74.9911C318.33 79.3566 321.869 82.8956 326.235 82.8956Z" fill="white"/>
</svg>
