<svg width="747" height="747" fill="none" xmlns="http://www.w3.org/2000/svg"><g filter="url(#a)"><path d="M580.634 552.069c-98.632 114.399-271.313 127.197-385.713 28.565-114.4-98.632-127.197-271.313-28.565-385.713 98.632-114.4 271.313-127.197 385.713-28.565 114.399 98.632 127.197 271.313 28.565 385.713Z" fill="url(#b)"/></g><path d="M580.634 552.069c-98.632 114.399-271.313 127.197-385.713 28.565-114.4-98.632-127.197-271.313-28.565-385.713 98.632-114.4 271.313-127.197 385.713-28.565 114.399 98.632 127.197 271.313 28.565 385.713Z" fill="url(#c)" style="mix-blend-mode:overlay"/><g style="mix-blend-mode:multiply" opacity=".72" fill="#E6E6E6"><path d="M616.888 270.49c.115-.622-1.082-2.717-1.128-3.384.276.046 3.729.069 3.89.667-.253-.759-1.727-.483-1.98-.989-.575-3.039-.667-7.965-3.291-6.491-.346-4.213-1.796 1.15-6.676-7.827-.621.553-2.762-10.749-7.665-17.677-1.887-3.315-4.212-3.568-6.491-5.11-3.107 4.58-.322 8.056 1.312 12.475-4.557 2.279-6.445 4.949-3.567 9.967 1.035-.345 1.818 1.036 2.463.806-1.128 1.726-2.026 7.32-2.348 9.345 5.685-2.624 4.327 4.466 6.951 8.425 1.496 2.279 6.952 1.795 8.333 3.637 1.289 1.703-.3 5.938 1.197 8.056 3.475 5.018 4.879 6.583 7.619 12.959 1.795 4.166 3.982 11.762 6.353 14.847 3.728-3.246 1.749-14.364-.553-22.65.115.069 3.43-.829 3.568-.76-.23-.345-3.867.53-4.051.231-.253-.852-.369-2.095-.645-2.924.138-.552 5.087-.253 6.1-.138-.783-1.266-5.156-3.637-6.077-5.8.276-.231 1.243-.277 1.496-.691 1.635-2.693-1.933-5.225-4.741-6.974h-.069Z"/><path d="M586.113 234.604s-.415.3-.369.231c.23.207-.046 1.611.161 1.841 1.681 1.957-.529 6.629 4.259 5.801-1.013-5.087-5.225-11.118-7.573-15.699-.023-.046 2.67-1.404 2.647-1.473-.138-.322-1.726.092-1.888-.23-1.841-5.156-5.846-7.757-7.25-9.76.736-.322 4.373-3.521 5.363-3.59.345.805.783 2.025 1.197 2.877.46-.507 1.013 1.197 1.013.552.483-.23 2.094-1.473 2.393-1.933-1.012-1.658-6.514-.99-7.895-2.233.507-.207 5.525-2.532 5.847-2.601-.852-1.358-6.238-3.246-9.368-6.33-.231-.345-.576-.598-.875-.875-.483-.506-1.243-.69-1.773-1.082-4.396-4.258-8.102-5.202-8.332-5.202 0 0-.645-2.601-.645-2.578-.253-.161-.253-.529-.598-.644 0 .046 1.473-2.716 1.496-2.67-.782-.507-1.726.875-2.601.736 2.762 4.397-1.312 7.573-6.767 2.624.828 2.648 1.404 2.302 2.071 3.96-.138.253 3.108 1.68 2.97 1.956-.092 0-.599-2.256-.691-2.279-1.289-3.038-2.624-5.754-4.465-6.33-1.059-.966-4.259 3.108-5.225 3.292-1.98-1.151-2.762-2.463-2.371-1.358-.184-.046 1.795-2.578 1.611-2.693-1.611-.967-5.179.805-6.629-.046-2.831-1.681-14.939-7.573-17.586-6.676 2.164 3.154 6.376 6.469 9.783 9.07 3.268 2.486 7.273 4.005 11.048 5.639 4.351 1.887 16.781 4.512 11.97 11.831 2.785 2.509 2.578 6.491 6.583 3.223 2.578 4.028 5.202 11.348 10.174 10.381 1.151 4.811 4.35 3.43 7.55 5.731.782 1.243-.622 4.627-.138 5.133.874.921.828 2.855 1.887 3.637.23.346 2.831-2.532 3.039-2.302l-.023.069ZM498.069 255.735c-.944 7.136-2.809 6.629 3.637 12.683 5.455 5.11 8.332 2.693 14.616 3.706 5.133.828 8.609 6.698 14.294 3.038 5.501-3.568.138-6.767-.046-10.381.53-.437 2.67 2.371 3.154 1.911.828.782 4.741.069 5.455.667 0-1.335.391-3.614.552-4.995 1.335-1.519-.483-7.481.553-9.069 2.14 1.289 3.084 4.811 4.35 7.044 4.12-3.936 2.969-5.64 1.45-9.438.161 0 2.21-.483 2.371-.598-.345-.507-1.45-2.095-1.864-2.302-.115-.437.391 1.151.345.691.161-.691-.898-.99-.852-1.612 1.013-1.818 2.877-3.66.576-7.089-1.013-1.496-4.972-.553-6.768-1.427-.851-4.995 7.55-5.295 3.729-9.576-8.263-12.453-14.8 1.059-15.79 3.913-2.348-9.829-5.824-18-14.386-18.898-2.348-1.496-5.663-.552-9.691-.506-4.65.046-16.089-2.854-19.358.322 2.532 5.018 7.711 1.842 11.601 3.407.023 0-2.992 4.12-2.969 4.143 0 0 1.45-1.013 1.427-.99.483.3.552 1.013 1.105 1.312 1.657 1.358 3.614.967 6.376.461.644.322 3.245 0 3.913.345 1.519 3.798 2.233 11.831 6.146 10.473 2.117 2.325 1.243.967 1.818 4.627-2.049.621-7.642-4.535-7.849-4.765.069.414-2.233-.276-3.66 3.223-.898-.99-.115.828-.552.598-.3-.69-.093-1.91-.415-2.716-.253-2.072-.46-4.304-2.601-6.698-.575-1.635-2.279-4.696-2.279-4.696-1.174.967-2.347 5.455-3.314 4.466-.299.23 1.082-1.197.921-.875-2.763-.253-4.443-.253-4.696 2.831-.345 4.166 11.785 6.353 10.772 11.394-.345.437-3.107-.276-3.383.161-2.003 0-3.729-5.156-6.537-2.302-.162.161-5.663 11.118-5.525 11.786 1.036 5.271 9.046 8.332 13.374 5.777v-.046Z"/><path d="M570.529 272.561c-.253.184-.782.645-1.058.76 1.219 2.647 4.442 3.752 6.053 5.938-.092-.092-1.703.944-1.795.852.483.645.46 3.959 1.105 7.412 0 .046 3.015.437 2.992.483-1.864 7.343-5.524 1.243-10.795 0-1.197 4.788 3.913 5.202 5.409 8.724 1.128 2.624 1.542 6.215 2.762 9.23-.506.392-3.959 2.072-4.396 2.187-5.456-7.09-3.914-9.483-5.985-7.527-2.072.921-5.156-2.394-6.215-.529-2.923-2.855-6.813-2.187-9.322-.253-9.369-.668-22.604 5.133-18.115 9-1.888.115-4.42-1.474-4.719-1.612.483-.667 1.013-1.174 1.059-1.726.276-.944 3.36-2.647 1.082-4.35 0 .391-1.405 4.971-1.474 5.271-2.739-.944-9-1.727-8.309 3.291 2.002 1.243 5.869 5.179 8.24 9.207 1.174 2.717 3.729 4.121 3.867 6.492-.115.529 1.496 2.969 1.197 3.406-.805-.046-2.693-1.427-2.186-.69-.093.092-2.417.345-2.555.437-.116-1.542 1.15-3.153.414-4.489-.576-3.314 0-5.846-3.637-.966-2.785 3.752-.829 11.071 2.877 13.511.046.392-2.348-.874-2.301-.506-.852 1.588-.76 5.708.138 7.32 0 .23 3.59-3.522 3.544-3.315-1.266-.621-4.35 2.601-5.432 1.98-.759-.461-3.637-1.911-4.557-2.878-3.2-6.836 1.565-21.038.184-26.47-3.798 3.13-4.051 4.12-3.936 1.243-.369.207-11.44 11.67-12.637 13.465.529-.852 2.877-2.348 2.762-4.373.138-.576.736-2.118.483-3.706-.069.023-5.547 1.128-5.616 1.151-.345-2.371-1.082-5.732-1.634-7.78.759.46 4.327-.323 4.718-.346 2.808-.184 2.072-2.877 5.202-3.337-.552-1.727-.529-2.716-1.381-3.476-.299-.506-1.864-.875-4.419-1.634 4.235-2.716 3.66 6.537 4.995-4.259.161-.598 1.565-1.174 1.542-1.703.023-.253 1.312-.852 1.335-1.105-.069 0-3.223.461-3.269.461-.483-2.555-3.038-2.809-5.593-5.548-1.98 1.266-1.933 4.604-2.601 6.929-2.164-.875-5.248-3.867-6.606-4.857-1.888-1.335-3.407-2.67-4.397-4.696-3.452 1.105-6.79 4.903-5.501 8.287-.23.138 1.657-3.039 1.45-2.97-2.071-.92-2.578-.92-4.35-3.222-1.013-2.302-3.614-4.235-4.673-5.133-.046.115 2.141-.276 2.095-.161-1.036-2.187-4.972-3.108-5.916-6.169-4.972 2.164-1.588 6.422-2.071 6.675-5.064-3.199-10.819 2.923-11.602 2.601.3-.207 2.625 6.054 3.983 7.366-8.103-5.686-6.192 7.757-5.202 9.713-2.832-.667-5.479-3.521-3.844 1.036-7.55-2.601-9.829.668-14.157.691.461-.368-.667-.461-.184-.645-.391-4.557-1.611-10.473-5.846-3.637-1.404-.552-.184-.69-.622-1.611.852-.253-1.174-2.117-1.358-3.522 5.225-2.923-2.532-8.263-4.926-11.416-.943 1.266-3.13 3.383-3.683 5.133-1.173-2.74.208-6.998-1.081-9.553-4.443.875-1.566-6.928-3.338-9.621-2.693-4.006-6.951-2.371-11.762-4.075 1.473-2.117 3.038-4.212 5.294-5.478-1.726-5.409-3.683-1.91-7.113-2.256-2.923-.299-6.606-4.972-10.128-3.89.323 1.151 3.131 5.571 3.545 6.675-.414-.046-.713.047-.99-.276-.575 1.45-2.946 1.957-4.12 2.947-1.818-2.256.852-7.113 2.647-9.254-2.555-.437-4.857 2.164-5.547 4.282-2.647-2.924-4.673-6.952-4.788-8.701-3.107 1.128 2.049 9.921-5.179 4.603 5.547-19.795-3.038-3.107-6.744 8.264-1.588-2.049-3.384-4.88-4.88-7.159-1.473 1.335-3.729 2.348-4.788 4.351-.506-.99-4.35-3.66-4.764-4.673-.829 2.9 1.772 14.57-3.683 13.074-5.525-1.519-.76-8.793-.967-12.452-3.476 2.463-8.517 1.243-11.371 2.301-.644-3.659.552-9.322-3.153-8.47 2.393 5.662-1.98 9.667-3.361 15.422-.046.184 1.059-1.312 1.036-1.105-1.865.506-3.016 3.038-5.962 1.634-.23 1.542-3.729 3.177-4.212 7.757-2.463 1.358-1.013 4.857-1.865 5.847-2.371 2.762 1.22 6.215-5.018 5.916-2.992-.162-3.613-5.087-7.25-3.085-6.491 3.591 13.074 10.542 14.179 14.202-2.279 1.934-6.169 8.103-3.729 11.394-.115 0 1.082-1.381.898-.99.322.507.46-.874.552-1.128.161.023.115 2.694.276 2.717.323.368 3.016-.967 3.361-.691-.069 1.818-4.097 5.064-4.005 5.662-2.164-3.982.759 1.865.713 1.911-.092-2.164 1.934-.069 4.88.944-2.371 1.818-6.284 5.961-3.614 2.923 3.89.414 9.046 3.038 10.819 6.123-.276.115-5.548 1.956-5.801 2.025 1.45 4.512-3.775 4.604-2.394 8.908 1.289 4.052 8.379 1.934 11.325 1.059 2.118 7.504 3.637 14.156 11.739 13.489-5.133 1.105-6.836 8.47-12.982 11.9 1.681 4.788 1.358 5.202 8.08 6.998 2.463-9.668 4.994-10.497 10.081-10.704-.184.368.76-.23.507.161 1.611 2.164.967.392 3.245-.943 0 .046 3.384 4.695 3.292 4.649-.622 2.164-3.038 3.384-5.018 4.604 1.611 4.281 6.307 7.02 9.852 9.276-1.266-3.223-.967-7.435 2.394-7.688-2.463-2.831-2.187-5.708-1.059-7.55 4.005-.921 8.401 1.957 12.844.253 2.555 4.19-18.553 3.2 1.772 10.427-2.071 1.934-1.197 3.016-1.841 4.903-.806 0-2.049-1.519-2.9-1.749-1.681-3.177-3.545-3.729-6.123-.806 1.542 2.141.529 3.453-.046 5.64-1.082-.438-.99-3.039-2.463-3.315-1.98-1.105-4.12-1.243-6.33-2.302-.299-.46-1.588.576-1.911.115-.253.208-1.036 2.924-1.381 3.085-.644-.299-.207-3.2-.851-3.476-.461-2.486-3.062-2.831-5.318-2.095 1.197-1.335-1.887-1.933-2.347-.943-.323-.115.253.782-.069.667-.599-2.186 1.173-3.337.667-5.501-.921 1.404-5.455-.345-5.801 1.289-.552.829 2.21 2.923 1.75 3.66-5.064-1.496-9.414-3.315-11.486-1.957-.53-.736.046 2.187-.368 1.312-4.305 2.325-7.873-2.624-11.786-.115 2.809.138 3.407.115 4.512 3.154-.576.299-.161-1.197-.714-.806 2.348.645 1.381 3.867 2.947 5.041-.208.99-.691 3.545-.921 4.811-2.44-.714-5.893-1.128-7.619.759 1.473 1.497 2.463 4.213 3.476 4.627.023.299-.046-1.611.184-1.588-.576 1.174.852 3.199.759 4.926-.874.207 4.328-.806 5.018.989-1.335.852-1.68 4.926.254 5.686-.714-.161-1.151-2.854-2.394-3.154.069-.046 1.611.415 1.703.3.414-.507-.714-2.302-1.243-1.589.23.231-.368 1.474-.161 1.727-.46-.138-1.22-1.289-1.335-1.473-1.611 1.611-.806 5.386 1.772 6.974-.437 1.197.346-1.957-.299-1.496-.437 0 .437.598-.046.621-.345-.161-1.243 3.131-1.703 2.739-.184.323.322 1.312.115 1.589-1.681.115-5.064.414-6.837.759-.092-1.174-.483-4.419.484-2.278-.553.138-1.727-.76-2.256-.576-1.082-.69-2.762 2.44-3.545 1.082a148.47 148.47 0 0 0-4.926 2.716c-.529-.299-3.959-2.026-4.511-2.164-.829-4.672 4.649-11.071 3.383-15.721-2.923 2.348-8.539 7.918-11.186 11.371 0-.092-2.417-.99-2.44-1.082.575-1.726 5.248-2.992 5.708-5.87.553-.483-.46-1.219-.299-1.772 1.588-1.312 2.555-2.141 1.957-5.639 6.03 4.12 5.087-3.131 6.468-6.445 1.404-3.361 6.353-4.558 1.174-8.862-.691 1.289-2.555 2.232-3.016 3.982-1.542-1.98-1.22-2.463-2.808-4.259 3.476-3.498-3.568-7.319-7.067-4.281-5.156 4.489.047 4.489-8.861 5.501-4.535.507-9.415 2.786-12.614-1.496-4.074-5.455 2.371-5.984 4.833-10.726-7.204-5.824-2.071-6.514.369-13.235.437-1.22-.253-3.614.092-5.041.414-1.658.805-3.154.921-5.11.207-3.706-1.888-2.67-5.226-1.658l-2.14-4.028c2.854-2.716.967-5.8-2.601-5.386-1.381-1.542-1.519-6.79-1.681-8.839-.23-3.107 1.105-2.486-1.15-5.547-3.752 4.235-3.775 7.987-2.348 13.672.276 2.901-.184 8.816-.23 8.908-1.566-1.312-1.704-3.798-3.269-2.785.967-2.854-1.473-4.235-3.084-6.284.115-.552 3.89-6.606 3.337-6.33.299.184-6.123-2.348-6.123-2.209-3.59-4.236-3.245.782-3.844 0 .829-.645-3.59-6.353-2.578-10.266 1.013-1.428 2.279-3.315 2.947-4.857.322-.253 2.601.621 2.969.46-.276 0-.092-.207-.299-.23.414-1.036-1.496.944-1.404.46.667.783 1.588-1.519 2.071-.575-.529-3.683-1.749-3.154-4.074-1.98-.023-.069-2.394.461-2.44.392-.046-.092 2.279-.553 2.026-.208-.461.254.253 1.589-.161 1.911 1.381-1.335-.3-5.11-1.335-7.32-1.704-3.683-1.635-1.013-4.19.691 0-.691-.69-3.131-.713-3.821-10.289 1.956-9.668-10.796-16.251-14.847-.276 2.348 3.2 12.706-.598 12.499.276-.345.322-1.519.713-1.957-.552-.667-2.325-.529-3.66-.552-1.542-3.959-3.683-14.11-8.862-9.023.092.598 3.66 1.105 3.913 1.68 1.036-.161-.161 4.903.99 4.719-.506 1.289 3.729 1.266 4.028 2.693-.253.207-5.225 2.049-5.271 2.371.276.092 3.522-1.427 3.775-1.335.484 1.726-1.197 3.913-.644 5.616.161 2.394 2.992 7.389-2.947 6.054-.23.621-4.235-11.992-4.074-13.374-1.45 1.474-2.693 1.036-4.12 2.532.046-2.025-1.542-8.884-2.164-10.519-1.128 1.934-1.588 2.44-2.647-.69-4.097 1.059-12.084 14.685-11.555 10.611-6.675 5.524 10.842 2.394 12.131 1.381 3.452 5.432-12.821 7.757-13.581 6.975-.506.552.783 1.358.46 1.91-1.818 1.496-.483-.714-.322 1.381.253-.23-1.565.391-1.312.207-.437 2.072-1.427 5.893-1.864 8.103-1.819-2.44-2.647-4.696-4.351-7.182-.368 3.222-.713 2.647-3.913 4.028-2.67-3.222-2.509-8.494-7.112-6.721-4.949 1.91.575 7.02 1.335 10.036.138.575-.069-.875.276-.069-1.312-1.289-4.212 1.611-7.228 4.511-.944-.782-2.279-2.854-2.67-4.005.414-.483-2.44.368-2.049-.138-1.404-2.555-3.498-6.33-5.708-2.509-1.243 2.141 1.358 6.629 2.532 6.974-.714 1.474-.276 3.223-.645 5.479-2.508 3.268-.483 9.046 3.062 14.018 2.21 5.961 6.353 11.279 7.412 13.764-.184.277-.921 2.164-1.197 2.417-4.88-3.452-5.709-17.677-12.131-17.631 1.612 2.601 4.558 8.792 4.074 11.969-.736 4.949-1.933 2.44-3.751-1.542-9.3 5.018 2.163 7.389 3.038 10.197.161.506 2.279-1.036 1.795-.207-3.199-1.059-8.447-.967-11.624 1.864 1.634 2.854 4.397 5.731 6.837 6.721.138 2.371 5.708 4.857 5.271 7.32-1.243-.76-2.601-3.522-3.867-5.041-.415.115-.737-1.174-1.22-1.243-.461-.368-2.325 3.338-2.67 3.108-.162.161-.231-.599-.323-.438-2.209-.759-4.12-2.094-5.938-.437-3.246 2.946 2.186 8.447 5.616 5.984.299.254-.023-1.404.023-1.565.345 1.128-2.187 3.131-2.463 4.811.76-.322 5.478-3.89 6.284-4.258 1.496 1.289 3.154 5.639 3.407 7.573-.138.023-1.059-.185-1.197-.161-.461-1.359-2.371-.323-4.305-.898-.644.552-1.127-3.453-1.657-2.9-.828-.576-2.854-1.151-3.522-1.911-1.22 1.588-2.324 2.992-4.534 3.499-.53-.276.736-.276.345-.461-.207-.276-.368 1.934-.46 1.658 1.358-6.537-2.233-13.65-4.627-20.325.599-3.223-1.795-4.673-5.777-9.783 2.67-1.565 8.125-4.742 7.642-8.056-5.87.092-7.343-6.675-7.182-11.647 0 0-1.289.368-1.289.345 3.66.184 2.279-6.123 4.442-7.872.576-.276 2.187-1.75 2.832-1.98 3.683-.437 5.018 8.425 7.895 3.108.483.828 4.189 3.683 4.649 4.603 4.719-7.734-5.892-11.278-8.585-16.642-2.624-5.225-6.56-5.087-3.315-8.839 1.819-2.094 10.128-3.682 6.583-7.918-3.959.668-7.089 4.88-9.897 7.067-.668-.323 1.427-.967 1.174-1.174-.116-.161-1.243 3.176-1.313 3.13 11.187-4.926-2.67-18.598-9.897-7.158-1.335 2.117-2.233 11.9-5.755 11.232-5.041-.943 1.565-11.209 2.647-13.672-1.105 1.036-4.166 1.519-5.34 2.509.115-.461 1.358-3.085 1.819-4.259-.898.576-1.704 0-2.624.53-2.509-4.12 2.094-5.294 2.923-9.299.736-3.522-4.926-10.359-4.443-13.926-1.588 4.58-2.877 8.954-3.729 14.11-.644 3.913 3.2 6.79 1.612 10.657-3.062 7.458-8.494 13.166-7.251 21.154-.552-.438.345-.599-.161-1.059-2.095 1.542-1.128 3.706-1.496 5.892-2.716 7.182-3.062 17.103-3.706 26.54-.645 1.796-2.647 3.66-3.131 5.478-1.289 4.696 2.164 6.676 2.348 10.197-.069 1.635-3.89 3.039-3.959 4.19-.161 1.035 2.532 2.739 2.21 3.913 0 0-4.719-1.404-4.742-1.404-.046.207 1.197.874 1.151 1.081-.138.461-1.197.668-1.358 1.174-1.082 3.775-.668 19.289 5.179 17.885.069 2.97 4.488 5.318 3.107 8.448-.414-.207-5.501-.23-5.961-.668 0 0-1.22-1.404-1.243-1.404-.092-.575 4.074-4.511 3.844-5.064 1.289 1.059 1.634 4.42-1.634.714-.599.345-2.648-1.934-2.694-1.542-.115-.184 4.512 2.693 4.374 2.509-.368 1.312-1.542 2.163-1.473 3.798-.553.276-3.706.46-4.028.759.713 2.095 3.521 4.259 4.741 6.699 1.289 4.235 3.131 6.997 4.535 7.688-.115.046 1.358 2.347 2.21 1.611 0 0-3.223-4.005-3.2-4.005.092-.092 3.867 2.647 3.982 2.555 2.969-9.507 5.686-15.768 8.678-8.172.898.323-.898 3.545-.691 7.182-.161 2.44.507 5.248 1.404 6.537.093.506 1.105.414 1.243.898.093-.277 1.727 1.266 1.842.966.092.046-4.304-1.289-4.212-1.242.138 2.762 3.521 2.624 4.695.322 1.197 1.151 6.652 8.931 5.985 13.005-.852.667-4.535-1.865-6.606-2.854-2.993-1.404-6.883-4.903-9.737-7.159.437 1.565 1.842 1.289 2.072 3.108-3.522-7.435-9.99-4.673-13.259-13.167-.161 1.588 2.371 3.614 2.486 6.1-.207-.046-4.649.138-4.856.115.276.414 5.248.299 5.455.737.46 7.941-1.059 18.851 1.013 23.363.023.046 1.634-2.325 2.071-2.394.345.253 5.271 8.862 2.9 9.852-2.393-3.361.576-3.522-1.127-5.317-.898.644-2.233 2.509-2.394 4.074l3.821.598c-1.312 7.964 4.051 20.118 7.089 28.013.553 1.45-2.854 9.553-1.818 10.427.115.115 2.164-2.301 2.279-2.209 1.243 2.923 2.37 4.741 2.578 5.501 1.381-1.312 1.243 1.427 1.588 5.547-.691-.345 1.542-.207.852-.506-.231-.461.69-2.21-.116-3.361.346.714-2.67 2.901-2.347 3.568-.208-.092-.392-2.049-.599-2.187-1.933 3.361 1.634 9.023 4.604 10.52.437.989.368.575.69 1.335.967 3.153 5.433 5.248 6.883 8.447 1.243 2.762 3.959 11.187 4.235 3.016.368.253 2.693-.162 3.246.276.276.736-.046 1.634.207 2.325.092-.369-.691.805-.553.368.852.736 1.566.99 2.486 1.887 2.026 4.397 3.177 8.701 3.154 5.479.276.598 1.128 1.795.943 2.14.875 1.842 7.228 2.739 11.233 5.387.415.506-.759 3.038-.322 3.567.552.346 1.818-.046 2.371.3 2.578 1.634 2.601 4.258 3.798 6.583.069 1.082.874 1.473-.392 2.486 1.543 2.324 6.423 1.496 8.172 3.475.138.622-.806 2.555-.184 2.947.621 1.266-1.565 3.59-.852 4.879 2.348 4.351 7.849 5.893 12.361 9.185-.346-.783-2.44-.99-2.555-1.819 1.703-.736 3.107 1.819 1.772-2.256.069-.598.76-3.567.898-4.12 3.706 2.693 6.56 8.241 7.826 12.361-.161.092-2.302-.691-2.371-.576-.161-.069-2.302 1.428-2.44 1.474.161.115 5.432-.392 5.548-.277-.047.369-2.072.645-1.474 1.128.208.484-1.427 3.131-1.012 3.867.299-.184.782-.92.621-1.404 4.834 3.016 17.931 8.494 28.082 13.305h-1.68c1.979 2.67 3.752 8.079 8.701 2.532-.461-.783.161 2.762-.231 2.002 1.865 1.128 7.32-1.956 8.356-.898-1.611-2.693-10.657-4.235-11.762-7.987.644-.667 3.337-.437 3.844-.598.483.115.207.828.575.782 2.601 1.289 3.568 4.696 6.975 4.512 0-.345 1.335-.115 1.427-.53.506.599 2.693 2.049 2.762 2.049-.207-.253-2.256.852-2.601.437.23-.874.644-3.982.759-4.787 1.612 1.496 4.443 4.534 5.985 6.099-.138.392-2.256 2.648-2.509 3.016-1.243 0-1.151-.967-2.739-.714 3.13 3.453 2.969 6.307 3.913 7.182.368 0 2.187 2.854 2.555 2.877 0-.161-.806-4.189-.667-4.258 1.565.897 3.475 1.358 5.363 2.14 1.749.714 8.793 3.016 11.394 3.706-2.532-4.005-9.944-5.202-12.223-9.782-.046-.461.161-.944.115-1.566 1.934.323-.069-2.232 1.404-2.393-1.496-2.003-.046-2.97-1.68-4.719 2.831-.115 5.225 2.693 7.895 3.13 1.013-2.831-.161-6.376 1.404-7.573-.736 8.747 21.637-3.176 10.589 8.632 2.854.23 23.432-2.532 15.537 5.87-3.2 3.406-11.072-.322-8.333 7.481.898 2.555 4.742 4.166 6.814 5.731 2.163 2.716 7.849 2.601 11.071 5.271 4.742 4.88 7.918 8.494 15.629 10.98 4.006 1.289 8.471 6.859 11.878 7.665 3.59.851 6.629-2.463 10.335-1.934-1.358-.828-3.2-1.818-4.351-2.946.76-.76 2.832 1.45 3.798 1.266.507.138 1.128 0 1.45-.276 3.453-.046 8.885 0 11.993-.99-1.036-2.486-6.813-5.202-9.207-5.962 2.693-2.532 1.91-6.03-1.681-6.905 1.865-4.512 6.077-1.911 9.046-3.545 1.819-.99 1.842-4.603 3.614-6.031-1.887.208-.851-.874-2.9-1.634-.391-.138.023-4.534-1.404-4.972-1.819-.552-5.11 5.916-6.606 5.571-9.944-2.21-4.765-7.711.644-11.279-2.417-4.535-14.34 9.046-20.923 5.846-11.854-5.754.598-10.68 3.614-15.422 1.703-1.197 3.614-1.105 4.465-1.818.76-.069 2.003-1.312 2.693-1.151-.667-1.887-2.9-.414-4.787-1.335-.208.092-.438-2.164-.645-2.118.46-.345 4.028-.736 4.396-1.128-.69-.874-4.465-.391-5.8-.805 0-.161.207-.99.207-1.151-.667 0-.921-2.716-1.312-2.693-.667-.138 0 .253-.667.184-.415-.622-.3.23-.714-.391-.276-.944-2.118-2.924-2.026-3.821 2.601 1.519 3.154 4.511 6.169 4.603.53-3.038-.299-4.741-2.601-5.961.092-.53-.851-3.039-.575-3.591 5.271-.691 8.171.828 13.58 5.179 4.144 3.337 9.231 9.69 3.016 12.107.575 6.353 1.956-.989 4.857-2.117 4.925-1.911 7.803-.967 13.12.713 2.831.898 7.089.461 3.798 5.202-.668.967-1.773 5.34-3.361 5.202-3.015-1.45-3.706-4.212-4.995-3.268.092.092-1.565-4.489-1.473-4.42-.368-.046 1.151 2.532.852 2.532 1.703 4.696 4.488 4.65 8.539 5.041.898.184 1.474 2.785 2.394 2.854.921.162 3.016-2.439 3.821-2.094.852 1.105.299 3.936 1.542 4.465-.391.092-.575-.805-.966-.667.184.875 1.151 2.463 2.256 2.164 1.818 1.703 3.682.897 5.984-.392 1.358.138 0-.805-.046-1.91 0 0 .23 1.519.253 1.519.714 1.404 4.167-1.128 4.788.299 2.164-3.222 5.824-3.545 8.425-5.57 2.831-1.335 4.603-4.949 7.365-6.537.829-.277 2.855 1.91 3.775 1.68 6.883-1.726 17.701-4.281 20.486-12.015-2.232 2.278-.529 1.243-2.301-.691.989-.806-.553-.875-.254-1.197-2.347-3.038-.736-2.969-1.427-4.465.323-2.694.806-7.343 1.473-9.139-2.278-.069-5.731 5.617-6.721 8.287-5.754-2.992.99-13.443.599-18.553-.438-5.731-5.548-9.621-9.668-13.925-6.353 3.429-6.146 10.312-14.225 3.844-.598 2.601-2.256.713-4.788 1.15-1.933 0-5.593 1.059-6.905.944 1.473-.851 11.302-8.47 11.21-9.414-.346-3.775-5.225-2.9-7.136-1.013-.069-.115-.391-.345-.46-.46-.76.736-3.246-.161-2.97 0-.322.483 1.934.161 1.727.805-1.842-2.14-2.532-5.317-4.443-6.629-.713-.483-3.314 1.013-3.936 1.128-3.982-5.156-6.422-11.256-11.601-12.177.115-.184-2.624 2.924-2.486 2.763-1.519-3.407-1.933-3.89-4.143-1.381-.046 0-1.634 2.117-1.68 2.117-3.407-2.624-4.167-6.721-7.596-3.499 1.864 4.052 1.818 3.96 2.463 6.86.046.46 4.212.506 4.258.967 0 .253-1.312.828-1.335 1.104-.391 4.512-4.995 2.532-1.036 6.307 1.934 1.842.483 5.064 2.049 5.502.966 1.312 1.519 2.417 2.808 4.189 0 1.059.736 2.233 1.68 3.292.437.483 3.499-1.289 4.281-1.174 5.295 7.596 10.359 14.685 3.269 8.816.368-2.463-4.604-1.566-7.642-2.878.069-.874.345-2.025-1.933-1.151.046.069-.714.277-.668.346-2.21-.668-5.202.483-7.435.092 0-.346.276-.576-.138-.392-3.959-.621-10.197-3.452-10.404-3.636.115-10.957-24.744 2.693-28.266-11.578 3.775-2.302 12.245-.323 8.793-5.663-.461.069-1.082-2.762-1.473-2.785 3.89-5.156-5.11-8.356-10.934-11.026.967-7.872-4.304-4.511-9.322-5.478 2.186 2.21 3.913 3.453 6.951 4.511.322.392 1.427-.092 2.026.645-.99 1.059-2.164 2.21-3.131 3.361-1.864-2.878-6.951-3.729-9.345-2.049 1.013 2.256 5.824 4.304 7.435 5.893.046.184-.576 1.588-.53 1.749-1.887.138-6.353-3.13-7.457-2.532-3.246 1.749 2.186 5.847 4.833 5.824-3.798 5.11-8.954-2.417-13.511-2.947-2.555-.299-5.248 6.1-8.126 5.801-2.163-.207-5.11-4.166-7.388-4.673-2.786-.621-7.297-1.588-10.497-2.463-.759-.391-.759-1.105-1.45-1.565-1.726-1.703-2.117-.806-1.519-2.003.737.392.898-.92 1.266-1.012-.552-.461-.713-.415-1.059-.737.99-1.151 3.43.299 5.409.53-.46-.99-2.808-1.474-3.521-2.279-.99.483-4.282 0-5.248.506-1.404-3.499 3.245-7.251 5.823-9.184-2.601-5.064-6.744-1.934-9.713.299-.046.046 1.473 3.545 1.45 3.591-.369.046-1.75-2.647-2.095-2.302-1.427.645.645 1.842-.76 4.328-.644 1.15-1.565 1.657-1.519 2.762-.713.437 1.865 0 2.187 2.048-.046.138-4.696-.138-4.788 0-1.036 1.911-5.685 8.218-7.918 7.688-6.905-1.657 1.036-6.376 1.358-9.069-7.228-.161-6.422 3.453-10.772 3.2-1.796-.99-5.317 1.841-6.906.874-.437-2.255 6.583-7.572 5.225-10.795-2.9-.023-6.698 3.499-8.839 5.179-1.542-1.105-4.718-2.279-5.064-2.992 6.653-6.146 5.018-1.358 1.75-1.496.184-.852-.115-.668-.207-1.243-.875.184-1.082-.116-2.072.391-.253-.345-1.059-.322-1.105-.898 5.041 2.486 5.179-2.486 9.23-3.591-1.243-.782-10.404-10.657-10.979-13.465 5.018 1.404 10.818 2.509 11.532 2.071.575.507.115-11.877-1.036-13.833 9.576 7.642 8.033 8.723 16.619 19.795-.898 11.693 34.918-2.21 31.604-7.872-3.89-3.545-9.99 4.903-10.957 7.136-.161-.576-5.478-2.924-6.376-2.648 1.266-1.381 4.88-3.291 1.681-2.393-1.451-3.499 9.828-2.532-1.105-5.709-5.663 3.2-1.22 2.923-7.435 4.443-.921-2.164 5.248-10.635 5.179-10.497-.668-.437-18.783-9.161-7.734-9.069-.576-2.186-14.962-6.629-15.906-7.389 13.144 6.745 4.144-11.877 1.497-13.902.759.276.483 2.347 1.127 2.578.139.138.714-.668.783-.507.092-.115 1.243-3.545 1.289-3.614 7.343 2.325 7.251 3.269 11.026 6.1 4.88-5.133 1.519-11.785 4.212-14.386 1.818 2.002 2.325 2.486 1.036 3.038-.023 0-2.44-3.337-2.486-3.314.782-.714 5.8.989 7.849.943-1.703-2.578-1.841-3.682.276-2.094-3.89-10.704-6.997 12.499-9.023-7.895 1.98 6.836-.253 1.035-.759-1.082 3.659 4.281 10.081 9.967 10.128 3.66 1.265-.277 6.698.897 8.148 2.9 16.043-.576 3.337-1.519-2.233-10.819 1.634-1.473 2.532-1.657-.598-1.081-.668 1.151-4.719 1.404-5.041 2.117-1.566-3.521.782-10.565 3.775-16.02 2.716 5.386 15.053 25.642 18.92 25.872 1.888 6.146 1.082 7.136 1.888 9.46 5.754 2.141 2.555-18.046-3.407-17.148-.414 1.128 3.453 5.8 3.614 6.238-.437.276-6.376 2.094-7.181 2.992-2.602-3.844-1.98-13.35-1.197-17.701 6.306 2.578-.645 8.839 6.514 7.688 1.128 2.348-4.88-13.028-7.849-18.552 4.718 3.844 8.792 11.233 7.872 13.304.736-.897 1.404-3.775 2.186-5.225 2.279-.322 3.637 18.23 7.09 14.133.621 1.197 2.279-9.207 3.522-15.537.092.092-4.397-1.772-4.236-1.703.254-.507 3.338.276 3.085-.184.506-2.095-.852-3.706.092-4.351 7.964 13.512-.691 1.197 2.509 9.829 3.499-2.946 2.417 1.358 4.051 2.854 2.532-7.895 8.171 1.105 9.552-1.933-1.243-4.075-8.125-11.532-2.9-17.034.599-.253-.506-2.048-.529-2.44.621-.483-.484.668.345.231.184 2.117 1.865 18.161 7.389 17.263-1.842 2.141-2.095 3.706-3.637 3.913 1.312.322.23-2.601 1.45-3.453-.023.277 2.785 3.936 2.762 4.236-.437.322-3.475-.599-4.028-.277.645.484 2.831.53 3.131.921 0 .668 1.104 3.039 1.15 3.614-1.266 1.151-9.552.207-11.255.575 1.956 1.727 6.79 5.87 10.036 4.765 2.693-.921 3.268-5.202 6.145-6.997.461.115-.46-3.384-.115-3.039.714-.529 2.394 3.453 3.246 3.154.276.345-.553-.23-.345.115.138.322 3.176-.576 3.314-.23.806 2.325-2.854 5.018-4.626 6.721 1.012.069 4.718-1.151 5.823-1.036.092.276-3.545 2.578-3.499 3.039-.621 1.127 2.463 5.202 2.463 6.376-7.389 1.012-1.151 6.168 5.479 10.058.253.323-1.451-1.634-1.382-1.496-10.312 7.964 9.116 18.99 7.274 20.878-2.532-.783-4.511.897-6.491 2.67-1.427-.622 4.65 1.105 7.32 3.015-1.588.829-6.883 5.616-8.195 6.422-1.749-1.795-2.025-4.765-2.071-4.465-5.156 1.312-4.097-.944.759 2.117-1.105-.736-2.831.691-3.959.668-1.013-1.174-3.706.161-4.12-1.335.322-.783 1.911-1.358 1.013-1.151-.161 0-2.256-3.131-2.141-3.223 4.466-3.406 11.808-11.371 8.793-8.931-.783-.92-4.12-.184-5.754-.115-4.259-3.89-7.55-9.529-14.111-7.642 1.727 1.75 2.625 2.993 3.591 5.432-4.741.645-6.284 3.085-11.117 1.52-2.371 4.189-.254 10.427 3.913 11.163 2.417 1.52 6.882-5.133 7.089.069-.529.3 1.013 3.66.645 4.075-.645-.185-1.082-3.384-.645-2.993-.138-.069-1.197.438-2.877 1.243 1.197 1.404-.253 4.742 1.266 6.445-.599-.092 1.542-2.624 1.059-2.509-3.338.829-5.087.115-7.665 2.187 3.291 5.639 9.529 1.082 12.982 7.113 2.002-2.256 2.854.23 5.064 1.058.529.507 2.256-3.199 2.647-3.245.46.299-1.289 5.225-.829 5.478.737.714 2.855.967 3.844.99.138.046 2.486-3.038 2.624-2.992 2.141 2.785 3.683 6.905 6.561 7.273-.415-1.703-2.717-2.877-3.453-4.626.138-.046 3.314-2.348 3.453-2.394 2.347 1.013 3.636 1.726 6.076.575.138-.483.99-1.243.921-1.749.944.391 1.427 1.818 2.417 2.118-.184-2.809-3.568-5.502-5.455-7.274 3.245-3.177 9.667-2.279 12.314 1.703 1.013-1.22.484-2.693.415-4.35-1.358-.461.368-1.404-.53-1.865 6.883-3.107 7.251-7.941 5.87-13.926 1.197.99 18.782 7.573 10.243-.874-.783.644 1.427 2.071.805 2.808-.276-.345.115-3.177.208-3.913.23-.299-.162-.944-.231-1.427 1.358-5.225 5.617-14.433-3.36-10.658-1.059.461-1.197 3.338-1.727 4.075-2.416.092-6.882 1.703-10.105 1.335 1.382-.392 2.417-3.016-.966-1.473-.461-.185-.783.138-1.22-.3-1.542-3.637 1.657-4.557 3.314-4.649-1.058-1.381-3.867-3.522-5.593-5.179-.253-.99-1.151-2.97-1.289-3.821 1.864-.3 3.384-1.013 5.639-.415.231-2.14-2.416-1.772-2.025-3.429-2.118-3.453-6.721 1.358-10.611 3.544-.139-.138 1.45-3.844 1.358-4.074-.139-.322-.737-2.233-.783-2.578.23-.207-2.095 1.634-1.772 1.542.69.277 2.232-3.015 2.969-2.301-.161-.553-.345 1.818-.437 1.335 2.578.23 3.107-1.404 4.534-4.604-.299-.829 2.256-.23 1.634-1.312 1.358-.23.346-2.9 2.072-3.13 7.757-1.128 4.189-1.059 2.348-8.195 3.245-1.036 8.263 5.018 11.302 6.906.529-3.016-4.903-10.128-6.883-13.65.438-.023.875-.161 1.404-.138 1.911.414 4.397-1.105 6.123-1.588 6.906.943 16.987 6.445 17.816 6.744-.276-1.082 7.527-8.172 8.01-7.688-5.869 3.959 12.223-1.427 9.875-4.213-1.358-.322-3.936-.506-3.361.967-.644-.046 1.313-8.355 2.878-9.253-.207.829 1.174 2.141 1.496 3.338 4.581-1.036 4.028-3.983 2.992-6.146 1.105 1.703 1.681 2.578 5.617.161-4.719-8.402 1.795-17.264-2.763-25.872-1.749 1.082-4.971-.691-5.455-2.601 7.596-1.312 4.028-5.548-1.841-7.873-.184-.207-.714.668-1.059.668-2.877-.921-7.504-3.476-9.576-1.151-.023 0-.161-1.082-.368-.806-.782.392-2.601 2.118-3.867 3.568l5.179 3.66c.875-1.588-2.048-3.867-2.071-4.051-.116-.046-1.612-4.558-3.315-5.478 4.765.046 16.09 1.45 25.044-2.417.644-.115-.277-1.842.299-1.934.944 1.565 1.703 5.64 3.153 6.56 5.018 3.2 4.443-2.785 4.903-3.613 1.013-1.773-.852-5.686.553-6.975.391.115.736.299 1.565-.921 0-.023 0-.621-.046-.644 1.634-1.289 4.88-.507 6.744-1.819 1.335-.552 2.532-.966 2.785-.943-1.795 1.818.806 1.772 4.097 1.68-3.176 1.266.277 6.652-.276 10.588-.345-.46-3.545-1.473-3.729-1.634-.483-3.315-5.179-3.844-8.562.368 1.611 1.566 3.544 6.537 7.089 8.632-.414 5.34-5.962 1.22-6.1 1.381 1.612 1.519-3.729 9.967-3.683 10.174 1.98-.437 12.476 2.785 13.535 4.051-2.877 4.074 12.821 16.251 13.719 14.686-2.785 2.808-.691 1.657-5.064 3.936 2.578 4.834 3.614-.115 2.9 4.903-.829.391 3.361 1.726 3.338 2.716 0 2.325 1.611 7.435 2.877 9.575 1.312-2.486 1.519-8.148 3.315-10.657 3.544 3.844 3.959 5.801 8.286 5.985 2.371 2.486 5.271 4.557 4.995 4.005 1.519-.322 2.923-3.246 4.373-3.775 1.381 2.302.668 3.982 4.903 3.407 3.131-.438 5.778-4.19 9.852-.691.529-.161-.069.529.483.598 4.028 5.893 8.931 4.282 6.422-2.209-.414-1.082 2.187-5.479.046-7.021 1.174.392 3.545 2.785 4.673 3.729-1.197-2.969-5.755-7.619-5.087-10.726 1.243 2.071 5.662 13.603 9.414 16.25 3.338 3.154 12.2 1.612 11.187-5.064-.345-2.232-3.821-3.867-5.616-5.708.069-.322.897-2.118.598-2.44-.138.092-.391.737-.483.806-.322-.415.598-.276.483-.737 0-.414 1.45.069 1.45-.345.231-.875-2.946-5.778-1.289-6.836.852.552 3.016 4.81 3.775 5.202 2.555-3.66.023-8.609-2.117-10.934-.53-.575-2.21.184-3.062-.621-.138-7.688 1.174-14.525.138-17.517 2.832-10.358 22.052 6.744 20.371-10.266 3.154.967 10.796 1.151 13.903 2.992-1.841-6.928-10.634-2.279-8.378-9.552.989 1.864 3.383 2.44 5.57 2.601-.253-.369-.668-2.463-1.243-5.294.391-.553.575.621.737-.115.437.667-1.727.805-1.197 2.117.483 1.98 3.13 1.98 3.798 1.68 1.496 3.66 2.946 5.364 5.225 5.249 1.059-.046 3.107.575 3.913-.277a218.381 218.381 0 0 1 12.222 18.415c.161.897-1.174 2.048-1.036 3.153.369 3.453-.552 13.005 4.236 8.931.874-.736 2.21-.23 2.279-1.657 4.258-2.578 7.826-6.1 11.324-4.005 2.072 3.867-1.242 12.107 1.98 15.79 2.371-1.059.668-5.869 0-7.941.092-.23 3.338-1.427 3.407-1.634 2.716 2.071 6.974 3.567 10.404 5.616 1.68-3.614.46-9.552-2.21-10.611-1.542-2.831-3.43-6.675-3.476-7.642 2.049 2.417 4.949 11.325 9.438 7.366-.783-3.983-1.335-13.098-.806-21.338.944-.069 0 1.979.668 2.141 1.22.299 4.028-.3 4.12-.3 3.476-.207 5.294-2.555 4.12-6.284-.875-2.831-7.895-3.89-10.795-6.629.368-3.406 2.278-5.501 2.624-7.158 2.232 1.726 3.199 4.005 5.869 4.626.23-1.266-.184-3.752.3-5.202 1.104-2.187 5.063-4.742 4.787-8.309.461-.484-1.335-.852-1.381-.53.391-3.499-1.473-6.33-4.695-7.619-.829-3.13.483-8.01-.783-11.14-.207-.898-1.289-.714-1.312-1.635-.184.276 1.381-2.163 1.243-1.818-.184-.484 1.174 1.427.99.944 0-.806-1.059-2.74-1.566-2.763-.46-1.058-2.324-.552-2.831-1.542.253-1.082.368-1.496.967-2.486 4.12.53 5.754-4.88 3.959-6.859.575 0-.391 1.726-.207 1.91.184-1.841-2.923-5.087-4.512-8.355.092-5.271-7.987-11.693-10.174-14.847l-.069-.069Zm-245.993 37.174s.046-.644.046-.736c.069.092 1.956.598 2.025.69-.069 0-2.002.046-2.071.046Zm54.299 79.228-.391-.299.875-1.542-.484 1.841Zm-11.624-34.573s-.368-.644-.414-.736c.46-.161 2.601 1.081 2.693 1.243-.299.184-2.095-.599-2.279-.484v-.023Zm62.655 41.824c.253-.276.875-.852 1.174-1.036-.184.276-.828.852-1.174 1.036Z"/></g><g style="mix-blend-mode:multiply" opacity=".72" fill="#E6E6E6"><path d="M636.706 385.787c2.279-3.729 1.381-34.481-6.767-46.543-18.138 12.614-9.207 62.817-2.923 85.259 4.35-1.565 7.434-25.159 11.094-20.624-3.637.161-4.741-1.243-3.314-4.235a17.157 17.157 0 0 1 5.616 2.117c-.667-3.844-1.243-12.568-3.706-15.974 1.934 2.67.322-.53 0 0Z"/><path d="M621.422 341.132c-2.094 1.036-2.486 8.102.875 8.816 3.084-17.816.483-15.353-3.154-30.407 4.788-.138 7.159 3.637 9.852 1.726a44.736 44.736 0 0 0-6.399-4.995c2.095-.115 4.166-.207 6.261-.276-2.348-12.291-14.616-13.719-11.44-25.458-5.156-7.273-9.345 8.977-7.274 7.044-6.445-3.752-10.864-27.208-26.539-27.967 5.386 23.57 32.11 54.852 37.818 71.494-.092-.276.069-.046 0 0v.023ZM533.47 328.357c-7.895 14.524 20.049 40.005 26.425 20.371 1.496 2.831 3.821 4.672 6.951 5.547.53-1.358 4.857-11.831 6.031-12.683 14.225 18.806 11.509-42.192-4.074-23.547 1.657-12.016-16.159-40.834-32.847-33.745 2.003 3.936 5.133 6.399 9.392 7.435-1.404.921-2.786 1.842-4.19 2.762 9.576-.092 15.146 13.857 13.19 22.742 4.074.368-15.169-10.496-10.681-5.317-.184-4.949.645-9.944.207-15.054-.253.092-9.713 5.317-8.769 3.361a76.498 76.498 0 0 1 5.777 14.57c-1.933 1.128-9.621-10.772-10.634-3.521-.299 2.209-15.284 20.071 3.222 17.079-3.406 6.284-4.879.782 0 0Z"/><path d="M593.616 370.664c.461-.115 1.059 17.148 1.151 17.056-4.442 2.97-7.711 1.635-9.851-3.982-3.752 5.363 10.289 21.568-3.752 20.118-6.399-22.489-31.259-7.642-40.19-17.195 1.082-.69 5.34-2.831 4.12-4.856-3.59 8.47-10.335-2.67-11.992 4.35-.76-1.059 8.724 20.256 5.34 22.673-1.082-1.358-2.486-2.026-4.212-1.98 1.588-2.279 2.463-4.811 2.647-7.596.069.207-10.565 17.931-10.243 20.486a252.642 252.642 0 0 0 4.419-1.772c-10.933-12.338-1.703-8.724.829-29.049-3.407 2.601-4.765 2.509-4.051-.299a231.969 231.969 0 0 0-16.366 7.849c2.9-1.266 4.834-3.36 5.847-6.307-7.09-.184-5.041-1.289-4.259-8.839 3.361 1.865 6.837 1.957 10.381.254.898-3.223-.253-5.525-3.475-6.906 2.279-.46 7.273 1.059 9.713-3.683-5.501-1.864-16.872-4.212-17.77-15.422-4.166-.23-6.836 1.657-7.964 5.663 3.384-.553-4.235-18.691-4.097-20.602-4.88.162-19.105 2.463-14.778 11.924-4.833-7.435-8.539 3.89-8.217 7.112-4.972-3.521-13.304-9.483-16.182-11.877-2.555-2.141-5.616-19.98-10.496-13.857-.506-15.606 5.939-16.504-6.491-27.575 6.1-4.167 4.397-14.272-6.744-15.215-1.059 11.463 4.097 5.041-4.765 8.125.506-3.591 2.417-6.146 5.732-7.642-7.228 4.512-9.829 1.865-7.85-7.918-19.956-.53 15.768 2.831-1.68-5.593-5.363 3.521-9.967 7.918-13.811 13.166-3.222-11.233-10.335-3.016-10.496-12.269-.506 5.456-3.176 9.046-8.033 10.796-1.427-4.719-.253-8.678 3.545-11.924-31.305 7.826.345-9.322-11.049-11.094.069 2.716-8.333 14.133-7.251 12.452-8.678-.943-22.788 7.09-28.68 7.85 11.601-1.52.506 28.012.391 27.621a4.372 4.372 0 0 0 2.072-1.45c-1.658 2.693-.806 3.775 2.601 3.223.138-.323-5.755 5.087-5.87 3.107.322 5.041 8.494 3.568-.253 7.09 2.394-3.683 5.018-.553 7.895 9.368-4.396-.023-11.002.782-11.394 7.135.115-1.726 15.514 21.891 15.86 22.006-9.323-1.589-22.581 7.204-11.233 15.767 5.869-8.309 10.703-4.604 16.734-5.593.667 12.222-11.9 2.44.806 20.209 0-14.409 10.795-8.792 18.299-8.723a16.668 16.668 0 0 1-8.471 2.417c7.573 4.097 8.563 8.033 2.947 11.808-7.228-2.947-3.223-9.207-9.369-.461-6.007-5.915-3.429-6.813-10.174-6.721-4.903-5.156-3.775-9.414-3.176-13.465-1.98 1.45-4.143 2.117-5.455 3.13-2.141-1.703-17.195-10.22-21.315-9.391 13.258 6.099-5.179 10.841-6.307 11.394 2.095 5.041 6.215 16.043 2.555 13.35 3.038-.368-.046.944-.576-1.358-1.081 7.619-1.266 9.483-.598 5.616-2.44-.874-8.056 8.77-8.54.254-5.57-.691-9.782-1.497-14.294-4.627a198.625 198.625 0 0 0 8.724-13.373c-6.652 8.447-12.015 9.966-16.136 4.534 3.844-4.719 28.566-12.407 23.916-21.038 2.187-1.888-17.217-6.653-17.286-6.745-13.282-18-5.847.944-6.561-21.729-.46-14.731 13.121-22.672 7.919-42.514-10.658 5.501-3.614 15.1-10.405 20.026-4.028-7.527-5.938-33.353 2.74-33.515-3.016-1.473.552.622.46-.184-1.105-2.509-2.9-3.798-5.386-3.867 2.186-.069 2.555.691 1.105 2.279 4.672-1.933-9.852-29.555-11.486-31.788-.046 4.604-1.704 8.425-5.018 11.394-.53.322-.484-17.724-6.676-15.054-.299 1.45 5.249 9.668 4.903 11.74-1.887 0-3.775.092-5.662.276 2.164 1.841 1.818 13.396-3.522 9.667 21.062-23.892-22.511-18.805-19.542-16.872 3.752 1.796 7.665 2.785 11.785 2.969-.967-5.017-19.381 7.228-21.844 11.141-.253-.944-7.159-14.8-10.519-14.846-5.202-.046-2.118 8.263-2.095 9.851 1.934 4.397-16.619-7.481-15.353-8.493-7.389 5.984-1.542 42.606-5.041 43.734-.046-7.32-1.634-14.294-4.788-20.854 2.809 6.767 1.865 11.601-2.808 14.501.714-5.686-1.082-6.353-5.363-2.026 0 0 3.66 9.967 5.593 8.402-21.66-18.461-3.13 11.532-5.225 14.962-1.979-2.671-5.018-11.348-11.371-8.908-.161.069.944 7.457-.368 9.736 5.616-.092 10.911-6.491 7.665 6.652-6.422-.874-5.593-6.629-13.028-7.826.921-.644.736-.276-.553 1.082 10.727-16.734.668-40.074 7.412-50.133 3.936 1.818 17.31-14.064 18.852 5.317 6.698-5.156-2.762-20.394-2.693-26.379 0-1.933 27.529-12.521-1.772-3.728 2.393-1.266 2.117-.691-.806 1.772 30.246-1.151-27.668-9.576-15.767-1.98-.046-5.386 2.393-9.299 7.319-11.739-7.665 3.085-2.739-17.355 1.75-25.55-21.798 25.872-34.136 63.323-51.883 87.584-1.266-1.013-2.555-2.026-3.821-3.062-3.545 5.202.76 25.942-2.808 29.555-3.338-.299-5.294-1.818-5.847-4.603.253-1.22 8.356-4.696 5.363-.967-1.242-1.565-2.485-3.13-3.705-4.696-.185-1.035-3.223 26.793 1.197 25.251a393.02 393.02 0 0 1-1.497-4.903c2.924 6.768 6.399 5.317 10.428-4.327 2.785-1.634-.185 20.854 1.035 19.68-5.294-7.089 5.824 6.33 1.589 13.604-7.827 2.325-7.873-22.604-10.566-11.67a128.095 128.095 0 0 1-7.411-17.126c2.117 6.791.644 8.425-4.374 4.903.207.921-1.197 33.515-.829 33.515.116-1.819.392-3.614.875-5.364 1.22-.322-10.703 39.775-9.276 42.515-1.68-3.223 4.926 11.647 3.706 10.45-.599-6.353.736 1.105-2.095-2.97-8.332 6.768 29.141 85.789 28.289 89.587 3.361-.093 1.681-.622 4.719-4.949 11.049 17.724 4.258 13.741-1.98 13.419 1.727.599 3.453 1.197 5.179 1.773-2.048.23-3.406 1.473-4.051 3.728-1.565.3 34.136 29.717 34.481 30.614a58.09 58.09 0 0 1-7.895-11.762c4.696-2.163 8.632 9.921 12.015 11.532-3.682.046-3.705-1.519-.115-4.718 2.325 4.948-6.606 16.572 0 19.818 3.108-6.974 8.356 3.084 14.133 7.389-.69-3.614-3.682-19.082-4.718-21.752 13.718 4.926 17.401 4.212 30.729 17.609-12.821-12.867-.253 24.583.161 25.504 7.32 16.066 15.422 21.798 28.611 29.463-6.053-8.034 6.192 1.565 12.821 2.002-.276-11.463.576-10.611 1.796-16.527-.253 1.243 12.222-6.629 6.238-11.394a66.222 66.222 0 0 0-8.034 2.739c-5.524-6.122-3.982-9.552 4.627-10.243-.391-3.429-30.568 3.798-23.824-9.23 1.842-3.545 15.192-8.885 19.013-6.169.368-9.368-10.036.254.691-4.649-2.026-7.09-13.926-10.404-2.325-5.317-.668-3.43-.506-6.791.506-10.059 9.231 2.371 17.172 19.059 9.783 24.376 5.225-3.752 15.606.575 19.542 5.731-1.059 3.453-3.291 5.87-6.744 7.205-7.228-7.964-.506-3.614-3.177-9.53 9.806 5.64 7.32 17.333 17.333 21.914 1.98.92 43.849 1.818 49.213-4.374-6.445 2.923 4.281-16.55 3.245-15.33-3.683.53-6.721 2.279-9.092 5.225 4.765 5.594-2.532-39.637-.645-32.11.047.138-19.174-4.051-21.844-5.455a64.496 64.496 0 0 0 13.604-4.627c1.496-5.248-6.974-2.831-9.115-5.271 2.877-2.025-16.573-31.696-25.182-28.243-2.14 4.926-1.013 8.171 3.338 9.737-6.56 16.411 1.381 15.399 3.199 32.064-1.657-15.215-49.557-22.42-47.256-40.351 17.379-2.992 9.392-20.002-2.877-27.967 1.45 3.338 3.568 6.054 6.353 8.103-8.77 4.304-3.199-5.479-11.877-3.384.967 20.509 8.378 3.315-2.325 4.558-2.049 3.015-1.266 5.409 2.325 7.204-9.967 6.33-44.609-29.785-30.43-21.982-1.289-3.315-3.752-4.949-7.389-4.88 1.634-3.821 4.489-5.938 8.609-6.399-1.174-11.739-12.752 3.246-13.374 6.077 1.842-2.003-15.353 1.749-14.34 2.463-1.657-4.189-.161-6.837 4.466-7.918-3.131-1.335-15.261.391-17.609-2.716a38.461 38.461 0 0 0 8.632-8.103c-6.445 4.028-10.934 2.993-13.489-3.084 11.348-4.489-1.68 1.174-.345-3.614 3.222 1.864 6.468 1.887 9.713.046a57.324 57.324 0 0 1-5.225-16.55c2.993 2.532 6.261 4.604 9.806 6.169a40.782 40.782 0 0 0 3.982-13.235c6.031 10.634 4.926 24.03 13.489 31.051 2.854 2.325 27.299 4.281 26.286-2.21.553 1.151-16.872-2.187-17.424-2.21.483-.23 6.951-3.268 7.066-3.567 2.095-5.525-11.117-2.233-12.015-2.371-.299-11.118 7.527-1.612 3.061-15.077-1.864-5.64-5.064-7.205-10.289-16.78 11.118 12.89 2.348-13.028 6.445-9.553-2.417-5.685 9.576 3.89 11.256 6.676a52.442 52.442 0 0 0 8.977-11.832c.138 4.535-.276 4.282-1.22-.782-.437.161 9.921 5.432 7.826 1.933.299-13.373-11.854 12.637-5.432-10.657-.622 4.189-.714 3.752-.299-1.289.575 1.703 17.954 18.299 21.821 14.777-.023.023-4.742-20.278-11.164-13.949 1.381-5.616 4.443-10.127 9.184-13.488 1.335 14.662 6.906 26.448 6.376 40.512 2.463 2.255 10.635-15.399 3.016-17.195a21.486 21.486 0 0 0 1.058 7.136c-2.555-.161-5.087-.138-7.619.138.139-6.146 1.888-11.785 5.226-16.895-.369 3.752.69 6.928 3.222 9.552-.483-6.698.253-13.396-.529-20.141 2.831 4.857 3.636 9.944 2.44 15.284 12.199-6.744 1.473 13.788 5.271 11.693-.645-6.537 12.383-8.608 5.501-16.296 2.877 2.071 4.396 1.059 4.511-3.039.116.691.829 25.78 10.888 15.906.691-8.839 1.634-11.325 3.821-19.381-3.407 1.035-2.279 18.943-1.358 18.736-4.12 7.918 2.279.253-.276 9a51.833 51.833 0 0 1-10.496-3.614c3.613 7.09 20.255 9.576 16.526 1.013-.552.161 9.116 4.995-2.025 9.668 2.394 1.174 2.048 16.205 2.048 19.036-14.432 4.235 5.939 16.964-7.711 22.166a21.618 21.618 0 0 1 5.617 5.501 208.147 208.147 0 0 0-9.783 2.97c-1.565-3.752-4.995-9.092-.368-2.67-2.946 0-5.34-1.197-7.159-3.591 2.947-3.108 4.121-7.113 11.762-9.553-.299-.874-13.879-14.363-15.376-14.524 3.775 8.977-4.396 7.826-9.345 3.683-9.46 7.803 10.358 15.905 5.156 18.506 2.785 2.118-9.944-13.741-3.752 3.545 3.959-3.084 1.98-4.005-5.892-2.739 1.611 10.542 12.798 11.049 17.148 12.2 2.394 3.383-1.22 9.713 7.274 14.501 1.151-8.586 5.524-6.56 10.749-2.187-.921 3.039 3.844-23.386 8.264-2.647 3.498-1.956 11.831-12.176 12.452-16.596a29.608 29.608 0 0 0 9.461 7.389c-2.877-.622 4.304-7.665 6.974-13.765-8.609 19.727-27.575-29.946-11.532-17.931 4.074-7.872-11.371-4.581-11.601-4.558-2.348-4.511 7.849-4.12.737-5.179 3.982 3.913 18.069-8.378 18.506-12.084 3.637 2.716 6.238 6.238 7.849 10.565a40.121 40.121 0 0 0-1.404-15.238c.484.161 44.287 16.596 41.939 9.53 16.872 11.923 15.952-69.215 5.547-42.146.484-.415-.897-10.105-1.496-10.819 8.586 3.591 18.092 3.936 24.699 5.294-1.819 5.479-.323 8.333 4.442 8.517 10.174-10.082 6.721-10.841 19.634-5.962-2.578 2.671-3.936 5.916-4.051 9.737-1.174-4.488-6.767-8.033-10.749-5.708 8.701 19.611-7.159 3.429-9.645 17.747 5.133.828 19.013 26.816 18.207 27.46-6.859 3.061-5.409 11.279-3.867 21.131 16.159-14.18 18.346 16.665 37.382 17.654 7.596.392.253-20.854 8.217-6.422-1.128-3.89-1.404-7.826-.805-11.831 1.035 6.1-.898 21.706 8.977 22.305 12.383.736-3.223-27.369 8.424-14.064 9.668-6.492-7.205-19.336 9.576-29.233 4.902-2.878 25.365 0 30.13 6.191-2.992-3.475-4.396-7.457-4.235-11.969 1.542 13.535 5.823-1.082 5.616-.736.737 3.913 10.174 33.169 11.141 35.378 6.905 15.814 4.235-2.186 14.087 10.888a75.311 75.311 0 0 0-3.844 15.422c10.105-.391-3.614-21.706 14.018 1.404 6.123-5.939-.898-12.131 1.312-19.036-.714 5.248 1.289 8.678 5.985 10.312a101.776 101.776 0 0 1 6.882-20.118c-.69-.207 8.816 12.43 9.737-.828a47.462 47.462 0 0 0-7.481-10.128c.023-.046 29.578-34.757 25.872-44.862-.368-.161-4.604-19.289-5.985-25.274-.299.092.875 3.752 0 0v.069Zm-237.914-56.072c.415-.69 4.189 1.312 0 0 .046-.069.069 0 0 0Zm21.269 93.637c-2.233-.897 5.317-2.347 0 0Zm1.749-36.391c.092.921 3.591-.622 0 0 0-.115.207-.046 0 0Zm42.284 61.941c.346-.161 1.105-.46 1.427-.529-.276.184-1.058.483-1.427.529Z"/></g><defs><radialGradient id="b" cx="0" cy="0" r="1" gradientUnits="userSpaceOnUse" gradientTransform="rotate(40.76 -56.457 575.205) scale(413.081)"><stop offset=".07" stop-color="#fff"/><stop offset=".37" stop-color="#FCFCFC"/><stop offset=".53" stop-color="#F4F4F4"/><stop offset=".66" stop-color="#E6E6E6"/><stop offset=".77" stop-color="#D3D3D3"/><stop offset=".87" stop-color="#BABABA"/><stop offset=".94" stop-color="#A3A3A3"/></radialGradient><radialGradient id="c" cx="0" cy="0" r="1" gradientUnits="userSpaceOnUse" gradientTransform="rotate(40.76 -315.882 689.411) scale(273.5)"><stop offset=".9" stop-color="gray"/><stop offset="1" stop-color="#CDCDCC"/></radialGradient><filter id="a" x="0" y="0" width="746.99" height="746.99" filterUnits="userSpaceOnUse" color-interpolation-filters="sRGB"><feFlood flood-opacity="0" result="BackgroundImageFix"/><feColorMatrix in="SourceAlpha" values="0 0 0 0 0 0 0 0 0 0 0 0 0 0 0 0 0 0 127 0" result="hardAlpha"/><feOffset/><feGaussianBlur stdDeviation="50"/><feComposite in2="hardAlpha" operator="out"/><feColorMatrix values="0 0 0 0 1 0 0 0 0 1 0 0 0 0 1 0 0 0 0.5 0"/><feBlend in2="BackgroundImageFix" result="effect1_dropShadow_1_104"/><feBlend in="SourceGraphic" in2="effect1_dropShadow_1_104" result="shape"/></filter></defs></svg>