<svg width="131" height="78" viewBox="0 0 131 78" fill="none" xmlns="http://www.w3.org/2000/svg">
<path fill-rule="evenodd" clip-rule="evenodd" d="M65.5013 0C48.0331 0 37.1183 8.66724 32.7494 26.0017C39.3003 17.3345 46.9421 14.0849 55.6749 16.2504C60.6574 17.4857 64.2204 21.0735 68.1607 25.0458C74.5832 31.5142 82.0172 39 98.2506 39C115.716 39 126.634 30.3328 131 13.0009C124.452 21.6681 116.81 24.9177 108.077 22.7496C103.092 21.5143 99.529 17.9265 95.5887 13.9568C89.1661 7.48324 81.7348 0 65.5013 0ZM32.7494 39C15.2837 39 4.36641 47.6672 0 65.0017C6.5509 56.3345 14.1928 53.0849 22.923 55.2504C27.9081 56.4857 31.471 60.0735 35.4113 64.0458C41.8339 70.5142 49.2652 78 65.5013 78C82.9669 78 93.8842 69.3353 98.2506 52.0009C91.6998 60.6681 84.0579 63.9177 75.3251 61.7521C70.3426 60.5143 66.7796 56.9265 62.8393 52.9568C56.4168 46.4884 48.9829 39 32.7494 39Z" fill="#38BDF8"/>
</svg>
